<svg height="512pt" viewBox="0 0 512.002 512" width="512pt" xmlns="http://www.w3.org/2000/svg"><path d="m495.890625 361.046875-69.632813-69.628906 71.90625-71.894531c8.902344-8.902344 13.804688-20.738282 13.804688-33.328126-.003906-12.589843-4.90625-24.425781-13.808594-33.324218-4.5625-4.566406-9.902344-8.082032-15.714844-10.421875 10.96875-18.125 8.632813-42.101563-7.003906-57.738281-15.636718-15.625-39.613281-17.949219-57.738281-6.980469-2.339844-5.824219-5.855469-11.164063-10.425781-15.730469-18.371094-18.371094-48.265625-18.375-66.644532 0l-15.105468 15.105469-63.308594-63.300781c-8.898438-8.902344-20.734375-13.804688-33.324219-13.804688-12.585937 0-24.425781 4.902344-33.328125 13.804688-4.210937 4.210937-7.53125 9.078124-9.855468 14.375l-14.371094-14.375c-8.90625-8.902344-20.742188-13.804688-33.328125-13.804688-12.585938 0-24.421875 4.902344-33.320313 13.800781-4.566406 4.5625-8.082031 9.902344-10.421875 15.714844-7.289062-4.429687-15.671875-6.796875-24.417969-6.796875-12.589843 0-24.425781 4.902344-33.324218 13.804688-8.902344 8.898437-13.804688 20.734374-13.804688 33.324218 0 8.746094 2.367188 17.128906 6.792969 24.414063-5.8125 2.339843-11.144531 5.851562-15.707031 10.414062-8.902344 8.902344-13.808594 20.738281-13.808594 33.328125s4.902344 24.425782 13.804688 33.324219l59.8125 59.804687c-5.292969 2.328126-10.164063 5.644532-14.375 9.855469-18.375 18.378907-18.371094 48.277344 0 66.652344l29.226562 29.21875-22.457031 22.457031c-10.390625 10.386719-16.113281 24.238282-16.113281 39.007813 0 14.765625 5.722656 28.617187 16.113281 39.003906l58.566406 58.5625c10.386719 10.390625 24.238281 16.109375 39.007813 16.109375 14.765624 0 28.617187-5.722656 39.007812-16.109375l79.261719-79.253906 79.222656 79.214843c10.386719 10.386719 24.238281 16.109376 39.007813 16.109376 14.765624 0 28.617187-5.722657 39.003906-16.109376l56.800781-56.792968c10.390625-10.386719 16.109375-24.238282 16.113281-39.007813-.003906-14.765625-5.726562-28.617187-16.113281-39.003906zm-18.941406-186.964844c3.234375 3.238281 5.019531 7.539063 5.019531 12.117188 0 4.574219-1.78125 8.875-5.015625 12.109375l-62.238281 62.226562c1.828125-15.789062 1.515625-31.789062-.933594-47.511718l38.945312-38.941407c3.234376-3.234375 7.535157-5.019531 12.109376-5.019531 4.574218.003906 8.875 1.785156 12.113281 5.019531zm-69.664063-45.433593s.003906-.003907.003906-.003907l22.714844-22.707031c6.679688-6.679688 17.550782-6.679688 24.230469-.007812 6.675781 6.679687 6.675781 17.546874 0 24.226562l-22.714844 22.707031c-.003906 0-.003906.003907-.007812.003907l-26.46875 26.46875c-4.191407-11.34375-9.566407-22.214844-15.996094-32.445313zm-45.441406-45.433594c6.679688-6.679688 17.546875-6.679688 24.222656 0 3.238282 3.234375 5.023438 7.535156 5.023438 12.109375 0 4.578125-1.78125 8.878906-5.015625 12.109375 0 0 0 0-.003907.003906l-15.289062 15.289062c-2.050781-2.273437-4.144531-4.511718-6.316406-6.6875l-17.726563-17.722656zm-180.464844 391.464844c-4.722656 4.722656-11.042968 7.320312-17.792968 7.320312-6.753907 0-13.070313-2.597656-17.792969-7.320312l-58.570313-58.566407c-4.722656-4.722656-7.324218-11.039062-7.324218-17.792969 0-6.75 2.601562-13.066406 7.324218-17.789062l22.460938-22.460938 6.363281 6.363282c33.164063 33.160156 77.25 51.425781 124.140625 51.441406zm293.296875-56.835938-56.800781 56.792969c-4.722656 4.722656-11.039062 7.324219-17.792969 7.324219-6.753906 0-13.070312-2.601563-17.792969-7.324219l-89.832031-89.820313c-2.847656-2.851562-6.679687-4.394531-10.605469-4.394531-1.289062 0-2.589843.167969-3.867187.507813-12.285156 3.28125-24.976563 4.945312-37.730469 4.945312-38.902344.003906-75.480468-15.148438-102.992187-42.65625l-16.910157-16.90625c-.023437-.019531-.035156-.042969-.058593-.0625-.019531-.019531-.042969-.035156-.0625-.058594l-39.773438-39.765625c-6.679687-6.679687-6.675781-17.546875-.003906-24.226562 3.238281-3.234375 7.542969-5.015625 12.117187-5.015625 4.578126 0 8.878907 1.78125 12.117188 5.011718v.003907l11.355469 11.359375c2.929687 2.929687 6.769531 4.394531 10.609375 4.394531 3.835937 0 7.675781-1.464844 10.605468-4.394531 5.855469-5.855469 5.859376-15.355469.003907-21.210938l-11.359375-11.359375v-.003906l-90.886719-90.871094c-3.234375-3.230469-5.015625-7.53125-5.015625-12.105469 0-4.578124 1.785156-8.878906 5.019531-12.117187 3.238281-3.234375 7.539063-5.019531 12.113281-5.019531 4.574219 0 8.875 1.78125 12.109376 5.019531l68.164062 68.15625c2.929688 2.929687 6.769531 4.390625 10.605469 4.390625 3.839843 0 7.679687-1.464844 10.605469-4.390625 5.859374-5.859375 5.859374-15.359375 0-21.214844l-68.164063-68.15625s-.003906-.003906-.003906-.003906l-22.710938-22.710937c-3.234375-3.234376-5.015625-7.535157-5.015625-12.109376 0-4.578124 1.78125-8.878906 5.015625-12.113281s7.535157-5.015625 12.113281-5.015625c4.574219 0 8.875 1.78125 12.113282 5.015625l22.71875 22.722657c.003906.003906.003906.003906.003906.007812l68.15625 68.144531c2.929688 2.929688 6.769531 4.394531 10.605469 4.394531 3.839843 0 7.679687-1.464843 10.609375-4.394531 5.855468-5.855469 5.855468-15.355469 0-21.214843l-68.160156-68.152344c-3.238282-3.234375-5.019532-7.535156-5.019532-12.113282.003906-4.574218 1.78125-8.878906 5.019532-12.113281 3.238281-3.234375 7.539062-5.015625 12.109374-5.015625 4.578126 0 8.882813 1.78125 12.117188 5.019532l45.433594 45.429687c.003906.003906.003906.003906.007812.007813l56.800782 56.792968c2.925781 2.929688 6.765624 4.394532 10.605468 4.394532s7.675782-1.464844 10.605469-4.394532c5.859375-5.859375 5.859375-15.355468 0-21.214844l-56.800781-56.792968c0-.003906-.003906-.003906-.003906-.003906-3.234376-3.234376-5.015626-7.535157-5.015626-12.109376 0-4.574218 1.78125-8.875 5.015626-12.105468 3.238281-3.238282 7.542968-5.023438 12.121093-5.023438 4.574219 0 8.875 1.78125 12.109375 5.019532l73.886719 73.875c.011719.011718.019531.019531.023437.03125.011719.007812.023438.015624.03125.023437l28.308594 28.304687c36.648438 36.644532 51.101563 90.5625 37.707032 140.703126-1.382813 5.175781.101562 10.691406 3.886718 14.476562l89.832032 89.828125c4.71875 4.71875 7.320312 11.039063 7.320312 17.789063s-2.601562 13.066406-7.324219 17.789062zm0 0"/></svg>