<svg height="937.5pt" viewBox="0 0 937.5 937.5" width="937.5pt" xmlns="http://www.w3.org/2000/svg"><path d="m671.875 187.5v-78.125c-.070312-60.375-49-109.3046875-109.375-109.375h-187.5c-60.375.0703125-109.304688 49-109.375 109.375v78.125c-146.632812.15625-265.46875 118.992188-265.625 265.625v468.75c0 8.632812 6.992188 15.625 15.625 15.625h906.25c8.632812 0 15.625-6.992188 15.625-15.625v-468.75c-.15625-146.632812-118.992188-265.46875-265.625-265.625zm-375-78.125c.054688-43.125 35-78.070312 78.125-78.125h187.5c43.125.054688 78.070312 35 78.125 78.125v78.125h-15.625v-62.5c-.054688-43.125-35-78.070312-78.125-78.125h-156.25c-43.125.054688-78.070312 35-78.125 78.125v62.5h-15.625zm46.875 78.125v-62.5c0-25.882812 20.992188-46.875 46.875-46.875h156.25c25.882812 0 46.875 20.992188 46.875 46.875v62.5zm562.5 718.75h-875v-453.125c.148438-129.382812 104.992188-234.226562 234.375-234.375h406.25c129.382812.148438 234.226562 104.992188 234.375 234.375zm0 0"/><path d="m593.75 562.5h-78.125v-78.125c0-8.632812-6.992188-15.625-15.625-15.625h-62.5c-8.632812 0-15.625 6.992188-15.625 15.625v78.125h-78.125c-8.632812 0-15.625 6.992188-15.625 15.625v62.5c0 8.632812 6.992188 15.625 15.625 15.625h78.125v78.125c0 8.632812 6.992188 15.625 15.625 15.625h62.5c8.632812 0 15.625-6.992188 15.625-15.625v-78.125h78.125c8.632812 0 15.625-6.992188 15.625-15.625v-62.5c0-8.632812-6.992188-15.625-15.625-15.625zm-15.625 62.5h-78.125c-8.632812 0-15.625 6.992188-15.625 15.625v78.125h-31.25v-78.125c0-8.632812-6.992188-15.625-15.625-15.625h-78.125v-31.25h78.125c8.632812 0 15.625-6.992188 15.625-15.625v-78.125h31.25v78.125c0 8.632812 6.992188 15.625 15.625 15.625h78.125zm0 0"/><path d="m468.75 375c-129.445312 0-234.375 104.929688-234.375 234.375s104.929688 234.375 234.375 234.375 234.375-104.929688 234.375-234.375c-.148438-129.382812-104.992188-234.226562-234.375-234.375zm0 437.5c-112.183594 0-203.125-90.941406-203.125-203.125s90.941406-203.125 203.125-203.125 203.125 90.941406 203.125 203.125c-.125 112.128906-90.996094 203-203.125 203.125zm0 0"/></svg>