<svg id="Layer_1" enable-background="new 0 0 511.006 511.006" height="512" viewBox="0 0 511.006 511.006" width="512" xmlns="http://www.w3.org/2000/svg"><path d="m436.522 74.483c-95.292-99.313-266.75-99.309-362.039 0-99.313 95.292-99.309 266.75 0 362.039 95.292 99.313 266.75 99.309 362.039 0 99.314-95.291 99.309-266.75 0-362.039zm-340.825 21.214c80.269-83.597 223.242-88.143 308.65-10.251l-73.863 73.863h-30.737c-27.685-1.15-27.663-40.587 0-41.727h12.723c19.902-.793 19.887-29.215 0-30h-12.723c-67.494 2.802-67.442 98.95 0 101.727h.737l-38.115 38.115h-175.576c-8.284 0-15 6.716-15 15v60c0 8.284 6.716 15 15 15h85.576l-86.924 86.924c-77.894-85.414-73.343-228.381 10.252-308.651zm260.319 93.612c11.504 0 20.863 9.358 20.863 20.862v17.229l-72.084.023 38.115-38.115h13.106zm-156.803 98.115v-30h33.156l-30 30zm-30 0h-67.42v-30h67.42zm105.582-30h69.75v30h-99.75zm99.75-.024h34.668v30h-34.668zm40.764 157.909c-80.268 83.598-223.241 88.143-308.65 10.252l108.136-108.136 209.418-.023c8.284 0 15-6.716 15-15v-60c0-8.284-6.716-15-15-15h-17.334v-17.229c0-22.93-15.255-42.356-36.147-48.684l54.829-54.829c77.894 85.412 73.342 228.379-10.252 308.649z"/></svg>