<?xml version="1.0" encoding="iso-8859-1"?>
<!-- Generator: Adobe Illustrator 19.0.0, SVG Export Plug-In . SVG Version: 6.00 Build 0)  -->
<svg version="1.1" id="Layer_1" xmlns="http://www.w3.org/2000/svg" xmlns:xlink="http://www.w3.org/1999/xlink" x="0px" y="0px"
	 viewBox="0 0 512 512" style="enable-background:new 0 0 512 512;" xml:space="preserve">
<g>
	<g>
		<path d="M256,21.333C112.448,21.333,0,82.24,0,160s112.448,138.667,256,138.667S512,237.76,512,160S399.552,21.333,256,21.333z
			 M256,277.333c-127.189,0-234.667-53.739-234.667-117.333S128.811,42.667,256,42.667S490.667,96.405,490.667,160
			S383.189,277.333,256,277.333z"/>
	</g>
</g>
<g>
	<g>
		<path d="M256,106.667c-60.821,0-106.667,22.933-106.667,53.333S195.179,213.333,256,213.333S362.667,190.4,362.667,160
			S316.821,106.667,256,106.667z M256,192c-52.096,0-85.333-18.944-85.333-32s33.237-32,85.333-32s85.333,18.944,85.333,32
			S308.096,192,256,192z"/>
	</g>
</g>
<g>
	<g>
		<path d="M501.333,149.333c-5.888,0-10.667,4.779-10.667,10.667v192c0,32.768-28.757,64.512-78.912,87.104
			c-5.355,2.432-7.744,8.747-5.333,14.123c1.792,3.947,5.675,6.272,9.749,6.272c1.451,0,2.944-0.32,4.373-0.939
			C478.656,432.363,512,393.515,512,352V160C512,154.112,507.221,149.333,501.333,149.333z"/>
	</g>
</g>
<g>
	<g>
		<path d="M245.568,469.056C121.92,466.261,21.333,413.76,21.333,352V160c0-5.888-4.779-10.667-10.667-10.667S0,154.112,0,160v192
			c0,74.496,107.648,135.296,245.099,138.389c0.085,0,0.171,0,0.235,0c5.781,0,10.539-4.608,10.667-10.432
			C256.128,474.069,251.456,469.184,245.568,469.056z"/>
	</g>
</g>
<g>
	<g>
		<path d="M433.067,376.427c5.952-4.459,14.933-11.179,14.933-24.512c0-13.333-8.981-20.053-14.933-24.512
			c-5.376-4.053-6.4-5.227-6.4-7.467s1.024-3.435,6.4-7.445c5.952-4.459,14.933-11.179,14.933-24.512
			c0-5.888-4.779-10.667-10.667-10.667h-192c-5.888,0-10.667,4.779-10.667,10.667s4.779,10.667,10.667,10.667h170.795
			c-5.248,4.437-10.795,10.837-10.795,21.291c0,13.333,8.981,20.053,14.933,24.512c5.376,4.053,6.4,5.227,6.4,7.467
			c0,2.219-1.024,3.413-6.4,7.424c-5.952,4.459-14.933,11.179-14.933,24.512c0,13.333,8.981,20.075,14.933,24.533
			c5.376,4.053,6.4,5.248,6.4,7.488c0,2.261-1.024,3.477-6.4,7.509c-5.952,4.459-14.933,11.221-14.933,24.555
			c0,10.539,5.611,16.96,10.88,21.397h-170.88c-5.888,0-10.667,4.779-10.667,10.667c0,5.888,4.779,10.667,10.667,10.667h192
			c5.888,0,10.667-4.779,10.667-10.688c0-13.333-8.981-20.096-14.933-24.555c-5.376-4.053-6.4-5.248-6.4-7.509
			c0-2.261,1.024-3.477,6.4-7.509c5.952-4.459,14.933-11.221,14.933-24.555c0-13.333-8.981-20.075-14.933-24.533
			c-5.376-4.032-6.4-5.227-6.4-7.467C426.667,381.632,427.691,380.437,433.067,376.427z"/>
	</g>
</g>
<g>
</g>
<g>
</g>
<g>
</g>
<g>
</g>
<g>
</g>
<g>
</g>
<g>
</g>
<g>
</g>
<g>
</g>
<g>
</g>
<g>
</g>
<g>
</g>
<g>
</g>
<g>
</g>
<g>
</g>
</svg>
